<svg xmlns="http://www.w3.org/2000/svg" xmlns:xlink="http://www.w3.org/1999/xlink" version="1.1" x="0px" y="0px" viewBox="0 0 29 36.25" style="enable-background:new 0 0 29 29;" xml:space="preserve"><style type="text/css">
	.st0{fill:none;stroke:#000000;stroke-width:2;stroke-miterlimit:10;}
	.st1{fill:none;stroke:#000000;stroke-width:2;stroke-linecap:round;stroke-linejoin:round;stroke-miterlimit:10;}
	.st2{fill:none;stroke:#000000;stroke-miterlimit:10;}
	.st3{fill:none;stroke:#000000;stroke-width:2;stroke-miterlimit:10;stroke-dasharray:1.7411,1.7411;}
	.st4{fill:none;stroke:#000000;stroke-width:2;stroke-linecap:round;stroke-linejoin:round;stroke-dasharray:2.0261,4.0522;}
	.st5{fill:#606060;}
	.st6{stroke:#000000;stroke-miterlimit:10;}
</style><g><g><circle cx="14.5" cy="4.684" r="1"/></g><g><ellipse transform="matrix(0.7071 -0.7071 0.7071 0.7071 0.9348 18.3615)" cx="22.632" cy="8.052" rx="1" ry="1"/></g><g><ellipse transform="matrix(0.7071 -0.7071 0.7071 0.7071 -15.3287 11.625)" cx="6.368" cy="24.316" rx="1" ry="1"/></g><g><circle cx="26" cy="16.184" r="1"/></g><g><circle cx="3" cy="16.184" r="1"/></g><g><ellipse transform="matrix(0.7071 -0.7071 0.7071 0.7071 -10.5652 23.125)" cx="22.632" cy="24.316" rx="1" ry="1"/></g><g><ellipse transform="matrix(0.7071 -0.7071 0.7071 0.7071 -3.8287 6.8615)" cx="6.368" cy="8.052" rx="1" ry="1"/></g><g><path d="M14.5,24.684c-4.687,0-8.5-3.813-8.5-8.5s3.813-8.5,8.5-8.5s8.5,3.813,8.5,8.5S19.187,24.684,14.5,24.684z M14.5,9.684    c-3.584,0-6.5,2.916-6.5,6.5s2.916,6.5,6.5,6.5s6.5-2.916,6.5-6.5S18.084,9.684,14.5,9.684z"/></g><g><path d="M9.196,22.487c-0.256,0-0.512-0.098-0.707-0.293c-0.391-0.391-0.391-1.023,0-1.414l5.304-5.303    c0.391-0.391,1.023-0.391,1.414,0s0.391,1.023,0,1.414l-5.304,5.303C9.708,22.39,9.452,22.487,9.196,22.487z"/></g></g><text x="0" y="44" fill="#000000" font-size="5px" font-weight="bold" font-family="'Helvetica Neue', Helvetica, Arial-Unicode, Arial, Sans-serif">Created by Chameleon Design</text><text x="0" y="49" fill="#000000" font-size="5px" font-weight="bold" font-family="'Helvetica Neue', Helvetica, Arial-Unicode, Arial, Sans-serif">from the Noun Project</text></svg>