<svg xmlns="http://www.w3.org/2000/svg" xmlns:xlink="http://www.w3.org/1999/xlink" version="1.1" x="0px" y="0px" viewBox="0 0 100 125" style="enable-background:new 0 0 100 100;" xml:space="preserve"><g><path d="M71.3,45.8L69,47.2v-1.7l-2-1.1l3-1.7V19.5L50,8L30,19.5v23.1l3,1.7l-2,1.1v1.7l-2.3-1.3l-20,11.5v23.1l20,11.5l20-11.5   v-2.8l1.3,0.7l1.3-0.7v2.8l20,11.5l20-11.5V57.4L71.3,45.8z M87.3,78.2l-16,9.2l-16-9.2v-2.8L69,67.4V51.8l2.3-1.3l16,9.2V78.2z    M55.3,59.7L67,52.9v13.3L55.3,73V59.7z M34,21.8l16-9.2l16,9.2v18.5L63,42l-13-7.5L37,42l-3-1.7V21.8z M50,36.8l11,6.4l-11,6.4   l-11-6.4L50,36.8z M28.7,87.4l-16-9.2V59.7l16-9.2l2.3,1.3v15.6l13.7,7.9v2.8L28.7,87.4z M33,66.3V52.9l11.7,6.8V73L33,66.3z    M50,76.1l-1.3-0.7v-18L33,48.3v-1.7l2-1.1l15,8.7l15-8.7l2,1.1v1.7l-15.7,9.1v18L50,76.1z"/></g><text x="0" y="115" fill="#000000" font-size="5px" font-weight="bold" font-family="'Helvetica Neue', Helvetica, Arial-Unicode, Arial, Sans-serif">Created by mikicon</text><text x="0" y="120" fill="#000000" font-size="5px" font-weight="bold" font-family="'Helvetica Neue', Helvetica, Arial-Unicode, Arial, Sans-serif">from the Noun Project</text></svg>