<svg xmlns="http://www.w3.org/2000/svg" xmlns:xlink="http://www.w3.org/1999/xlink" viewBox="0 0 37 47.5" version="1.1" x="0px" y="0px"><title>presets</title><desc>Created with Sketch.</desc><g stroke="none" stroke-width="1" fill="none" fill-rule="evenodd"><g transform="translate(-641.000000, -297.000000)" fill="#000000"><g transform="translate(641.000000, 297.000000)"><path d="M27.4917,8.3148 C26.5297,8.3148 25.7467,7.5318 25.7467,6.5698 C25.7467,5.6078 26.5297,4.8258 27.4917,4.8258 C28.4537,4.8258 29.2367,5.6078 29.2367,6.5698 C29.2367,7.5318 28.4537,8.3148 27.4917,8.3148 L27.4917,8.3148 Z M32.8697,4.5708 C32.0557,2.3878 29.9557,0.8258 27.4917,0.8258 C25.0277,0.8258 22.9277,2.3878 22.1137,4.5708 L0.9427,4.5708 L0.9427,8.5708 L22.1137,8.5708 C22.9287,10.7528 25.0287,12.3148 27.4917,12.3148 C29.9547,12.3148 32.0547,10.7528 32.8697,8.5708 L36.7217,8.5708 L36.7217,4.5708 L32.8697,4.5708 Z"/><path d="M10.1733,33.7274 C9.2113,33.7274 8.4283,32.9444 8.4283,31.9824 C8.4283,31.0204 9.2113,30.2384 10.1733,30.2384 C11.1353,30.2384 11.9183,31.0204 11.9183,31.9824 C11.9183,32.9444 11.1353,33.7274 10.1733,33.7274 M10.1733,26.2384 C7.7093,26.2384 5.6093,27.8004 4.7953,29.9834 L0.9433,29.9834 L0.9433,33.9834 L4.7953,33.9834 C5.6103,36.1654 7.7103,37.7274 10.1733,37.7274 C12.6363,37.7274 14.7363,36.1654 15.5513,33.9834 L36.7223,33.9834 L36.7223,29.9834 L15.5513,29.9834 C14.7373,27.8004 12.6373,26.2384 10.1733,26.2384"/><path d="M18.7876,17.5301 C19.7496,17.5301 20.5326,18.3121 20.5326,19.2741 C20.5326,20.2361 19.7496,21.0191 18.7876,21.0191 C17.8256,21.0191 17.0426,20.2361 17.0426,19.2741 C17.0426,18.3121 17.8256,17.5301 18.7876,17.5301 M18.7876,25.0191 C21.2496,25.0191 23.3496,23.4581 24.1646,21.2771 L36.6776,21.2771 L36.6776,17.2771 L24.1666,17.2771 C23.3526,15.0921 21.2516,13.5301 18.7876,13.5301 C16.3236,13.5301 14.2226,15.0921 13.4086,17.2771 L0.8986,17.2771 L0.8986,21.2771 L13.4106,21.2771 C14.2256,23.4581 16.3256,25.0191 18.7876,25.0191"/></g></g></g><text x="0" y="53" fill="#000000" font-size="5px" font-weight="bold" font-family="'Helvetica Neue', Helvetica, Arial-Unicode, Arial, Sans-serif">Created by Anton Barbarov</text><text x="0" y="58" fill="#000000" font-size="5px" font-weight="bold" font-family="'Helvetica Neue', Helvetica, Arial-Unicode, Arial, Sans-serif">from the Noun Project</text></svg>